PathFileType	4	(X/Y/Z) abd_0kg_2.trc																										
DataRate	CameraRate	NumFrames	NumMarkers	Units	OrigDataRate	OrigDataStartFrame	OrigNumFrames																					
100	100	53	9	mm	100	741	846																					
Frame#	Time	gu			centelbow			EpL			centpxt8			centijc7			ij			ts			aa			ai		
		X1	Y1	Z1	X2	Y2	Z2	X3	Y3	Z3	X4	Y4	Z4	X5	Y5	Z5	X6	Y6	Z6	X7	Y7	Z7	X8	Y8	Z8	X9	Y9	Z9  
740	7.4	-110.1	8.707	158.002	-130.968	-234.811	193.331	-131.56	-226.204	224.395	-46.816	-153.158	-8.669	-46.816	31.938	-8.669	0	0	0	-129.234	29.134	28.31	-140.38	43.435	146.192	-141.565	-82.324	45.94
741	7.41	-110.097	8.721	157.975	-130.967	-234.794	193.32	-131.552	-226.186	224.384	-46.816	-153.158	-8.669	-46.816	31.938	-8.669	0	0	0	-129.332	29.178	28.316	-140.408	43.475	146.204	-141.657	-82.28	45.948
742	7.42	-110.122	8.79	157.936	-130.984	-234.725	193.28	-131.56	-226.118	224.345	-46.816	-153.158	-8.669	-46.816	31.938	-8.669	0	0	0	-129.484	29.196	28.326	-140.497	43.482	146.221	-141.794	-82.264	45.955
743	7.43	-110.184	8.856	157.869	-131.052	-234.66	193.209	-131.616	-226.053	224.274	-46.816	-153.158	-8.669	-46.816	31.938	-8.669	0	0	0	-129.605	29.208	28.451	-140.569	43.484	146.353	-141.911	-82.253	46.076
744	7.44	-110.228	8.896	157.836	-131.112	-234.617	193.184	-131.668	-226.011	224.249	-46.816	-153.158	-8.669	-46.816	31.938	-8.669	0	0	0	-129.675	29.22	28.692	-140.596	43.489	146.599	-141.989	-82.241	46.313
745	7.45	-110.203	8.875	157.895	-131.109	-234.635	193.252	-131.663	-226.027	224.316	-46.816	-153.158	-8.669	-46.816	31.938	-8.669	0	0	0	-129.678	29.162	28.957	-140.559	43.416	146.869	-142.007	-82.299	46.566
746	7.46	-110.143	8.761	158.017	-131.076	-234.748	193.367	-131.632	-226.141	224.432	-46.816	-153.158	-8.669	-46.816	31.938	-8.669	0	0	0	-129.604	28.995	29.157	-140.44	43.227	147.076	-141.949	-82.467	46.748
747	7.47	-110.091	8.633	158.157	-131.043	-234.877	193.488	-131.602	-226.272	224.553	-46.816	-153.158	-8.669	-46.816	31.938	-8.669	0	0	0	-129.489	28.844	29.293	-140.27	43.059	147.219	-141.839	-82.619	46.871
748	7.48	-110.047	8.608	158.274	-131.016	-234.902	193.594	-131.577	-226.299	224.659	-46.816	-153.158	-8.669	-46.816	31.938	-8.669	0	0	0	-129.414	28.851	29.404	-140.131	43.053	147.338	-141.755	-82.614	46.977
749	7.49	-110.019	8.67	158.322	-131.032	-234.835	193.654	-131.587	-226.23	224.72	-46.816	-153.158	-8.669	-46.816	31.938	-8.669	0	0	0	-129.412	28.989	29.515	-140.052	43.172	147.457	-141.735	-82.48	47.079
750	7.5	-110.049	8.734	158.36	-131.14	-234.762	193.709	-131.682	-226.155	224.774	-46.816	-153.158	-8.669	-46.816	31.938	-8.669	0	0	0	-129.446	29.118	29.703	-139.999	43.271	147.657	-141.755	-82.355	47.247
751	7.51	-110.146	8.801	158.471	-131.332	-234.687	193.812	-131.851	-226.083	224.879	-46.816	-153.158	-8.669	-46.816	31.938	-8.669	0	0	0	-129.507	29.142	30.032	-139.962	43.254	148	-141.815	-82.336	47.547
752	7.52	-110.168	8.898	158.614	-131.479	-234.582	193.934	-131.961	-225.983	225.003	-46.816	-153.158	-8.669	-46.816	31.938	-8.669	0	0	0	-129.586	29.097	30.38	-139.915	43.165	148.364	-141.895	-82.386	47.863
753	7.53	-109.937	8.93	158.759	-131.457	-234.531	194.088	-131.881	-225.934	225.158	-46.816	-153.158	-8.669	-46.816	31.938	-8.669	0	0	0	-129.613	29.116	30.551	-139.771	43.134	148.556	-141.898	-82.374	48.005
754	7.54	-109.478	8.785	158.998	-131.338	-234.638	194.378	-131.686	-226.04	225.448	-46.816	-153.158	-8.669	-46.816	31.938	-8.669	0	0	0	-129.586	29.251	30.552	-139.545	43.204	148.581	-141.825	-82.251	47.967
755	7.55	-109.047	8.577	159.331	-131.353	-234.795	194.786	-131.611	-226.193	225.857	-46.816	-153.158	-8.669	-46.816	31.938	-8.669	0	0	0	-129.602	29.385	30.574	-139.38	43.254	148.629	-141.81	-82.129	47.93
756	7.56	-108.898	8.534	159.558	-131.664	-234.783	195.095	-131.825	-226.177	226.165	-46.816	-153.158	-8.669	-46.816	31.938	-8.669	0	0	0	-129.703	29.438	30.677	-139.33	43.213	148.755	-141.907	-82.088	47.957
757	7.57	-108.997	8.673	159.532	-132.179	-234.595	195.139	-132.25	-225.986	226.208	-46.816	-153.158	-8.669	-46.816	31.938	-8.669	0	0	0	-129.815	29.449	30.73	-139.303	43.132	148.83	-142.042	-82.087	47.934
758	7.58	-109.101	8.801	159.309	-132.679	-234.421	194.97	-132.682	-225.811	226.039	-46.816	-153.158	-8.669	-46.816	31.938	-8.669	0	0	0	-129.878	29.439	30.659	-139.229	43.05	148.778	-142.171	-82.099	47.801
759	7.59	-109.117	8.786	158.988	-133.121	-234.388	194.692	-133.077	-225.776	225.76	-46.816	-153.158	-8.669	-46.816	31.938	-8.669	0	0	0	-129.924	29.462	30.459	-139.148	43.032	148.592	-142.32	-82.07	47.565
760	7.6	-109.14	8.645	158.629	-133.587	-234.483	194.345	-133.511	-225.871	225.413	-46.816	-153.158	-8.669	-46.816	31.938	-8.669	0	0	0	-129.951	29.566	30.169	-139.061	43.113	148.314	-142.452	-81.957	47.253
761	7.61	-109.209	8.448	158.298	-134.047	-234.645	193.975	-133.943	-226.04	225.045	-46.816	-153.158	-8.669	-46.816	31.938	-8.669	0	0	0	-129.912	29.637	29.945	-138.923	43.143	148.102	-142.511	-81.882	46.992
762	7.62	-109.262	8.226	158.043	-134.402	-234.847	193.649	-134.274	-226.252	224.722	-46.816	-153.158	-8.669	-46.816	31.938	-8.669	0	0	0	-129.883	29.587	29.889	-138.811	43.025	148.06	-142.579	-81.93	46.871
763	7.63	-109.252	8.001	157.889	-134.619	-235.057	193.437	-134.468	-226.471	224.513	-46.816	-153.158	-8.669	-46.816	31.938	-8.669	0	0	0	-129.984	29.534	29.907	-138.827	42.892	148.094	-142.752	-81.986	46.816
764	7.64	-109.175	7.872	157.863	-134.68	-235.174	193.393	-134.51	-226.592	224.469	-46.816	-153.158	-8.669	-46.816	31.938	-8.669	0	0	0	-130.187	29.573	29.903	-138.934	42.862	148.105	-142.978	-81.953	46.754
765	7.65	-109.073	7.886	157.946	-134.613	-235.156	193.48	-134.427	-226.574	224.557	-46.816	-153.158	-8.669	-46.816	31.938	-8.669	0	0	0	-130.356	29.624	29.891	-139.002	42.861	148.106	-143.132	-81.91	46.704
766	7.66	-109.012	7.933	158.033	-134.536	-235.112	193.558	-134.336	-226.533	224.635	-46.816	-153.158	-8.669	-46.816	31.938	-8.669	0	0	0	-130.388	29.603	29.853	-138.942	42.797	148.08	-143.149	-81.937	46.636
767	7.67	-108.98	7.913	158.028	-134.511	-235.134	193.531	-134.295	-226.56	224.609	-46.816	-153.158	-8.669	-46.816	31.938	-8.669	0	0	0	-130.321	29.582	29.747	-138.793	42.732	147.985	-143.08	-81.963	46.496
768	7.68	-108.899	7.872	157.998	-134.475	-235.174	193.477	-134.244	-226.604	224.556	-46.816	-153.158	-8.669	-46.816	31.938	-8.669	0	0	0	-130.272	29.659	29.663	-138.679	42.757	147.911	-143.039	-81.891	46.368
769	7.69	-108.731	7.866	158.078	-134.355	-235.179	193.524	-134.114	-226.615	224.605	-46.816	-153.158	-8.669	-46.816	31.938	-8.669	0	0	0	-130.258	29.79	29.687	-138.629	42.827	147.944	-143.037	-81.767	46.337
770	7.7	-108.531	7.858	158.21	-134.172	-235.192	193.617	-133.928	-226.632	224.699	-46.816	-153.158	-8.669	-46.816	31.938	-8.669	0	0	0	-130.197	29.856	29.705	-138.545	42.834	147.97	-142.981	-81.709	46.301
771	7.71	-108.411	7.81	158.2	-134.032	-235.246	193.583	-133.786	-226.69	224.666	-46.816	-153.158	-8.669	-46.816	31.938	-8.669	0	0	0	-130.078	29.84	29.584	-138.401	42.772	147.856	-142.856	-81.732	46.14
772	7.72	-108.415	7.764	158.013	-133.986	-235.296	193.395	-133.733	-226.741	224.478	-46.816	-153.158	-8.669	-46.816	31.938	-8.669	0	0	0	-130.011	29.813	29.379	-138.303	42.709	147.657	-142.768	-81.765	45.906
773	7.73	-108.491	7.768	157.782	-133.975	-235.304	193.153	-133.71	-226.751	224.237	-46.816	-153.158	-8.669	-46.816	31.938	-8.669	0	0	0	-130.064	29.82	29.243	-138.314	42.668	147.53	-142.78	-81.769	45.733
774	7.74	-108.593	7.804	157.595	-133.929	-235.291	192.915	-133.644	-226.747	224.001	-46.816	-153.158	-8.669	-46.816	31.938	-8.669	0	0	0	-130.234	29.873	29.227	-138.408	42.646	147.526	-142.882	-81.732	45.658
775	7.75	-108.716	7.802	157.44	-133.83	-235.329	192.67	-133.514	-226.8	223.76	-46.816	-153.158	-8.669	-46.816	31.938	-8.669	0	0	0	-130.518	29.927	29.239	-138.557	42.599	147.559	-143.071	-81.7	45.595
776	7.76	-108.805	7.645	157.279	-133.655	-235.528	192.399	-133.3	-227.018	223.494	-46.816	-153.158	-8.669	-46.816	31.938	-8.669	0	0	0	-130.841	29.838	29.187	-138.687	42.393	147.533	-143.283	-81.813	45.46
777	7.77	-108.731	7.267	157.075	-133.337	-235.946	192.09	-132.942	-227.454	223.189	-46.816	-153.158	-8.669	-46.816	31.938	-8.669	0	0	0	-131.03	29.534	29.061	-138.67	41.979	147.432	-143.364	-82.14	45.258
778	7.78	-108.474	6.797	156.877	-132.877	-236.447	191.818	-132.456	-227.967	222.921	-46.816	-153.158	-8.669	-46.816	31.938	-8.669	0	0	0	-131.037	29.197	28.951	-138.516	41.552	147.341	-143.271	-82.498	45.085
779	7.79	-108.221	6.458	156.829	-132.431	-236.813	191.724	-132.009	-228.339	222.828	-46.816	-153.158	-8.669	-46.816	31.938	-8.669	0	0	0	-131.011	29.049	28.988	-138.416	41.336	147.39	-143.157	-82.662	45.071
780	7.8	-108.092	6.296	156.966	-132.127	-236.999	191.811	-131.726	-228.531	222.916	-46.816	-153.158	-8.669	-46.816	31.938	-8.669	0	0	0	-131.019	29.059	29.16	-138.42	41.292	147.568	-143.096	-82.666	45.198
781	7.81	-108.018	6.24	157.165	-131.949	-237.074	191.947	-131.578	-228.611	223.055	-46.816	-153.158	-8.669	-46.816	31.938	-8.669	0	0	0	-130.983	29.091	29.275	-138.396	41.287	147.686	-143.014	-82.644	45.279
782	7.82	-107.984	6.25	157.334	-131.882	-237.077	192.049	-131.541	-228.62	223.158	-46.816	-153.158	-8.669	-46.816	31.938	-8.669	0	0	0	-130.936	29.13	29.215	-138.344	41.296	147.629	-142.937	-82.612	45.195
783	7.83	-108.01	6.227	157.441	-131.908	-237.111	192.083	-131.593	-228.66	223.194	-46.816	-153.158	-8.669	-46.816	31.938	-8.669	0	0	0	-130.935	29.155	29.074	-138.326	41.289	147.492	-142.921	-82.592	45.025
784	7.84	-108.001	6.114	157.452	-131.9	-237.234	192.022	-131.605	-228.79	223.135	-46.816	-153.158	-8.669	-46.816	31.938	-8.669	0	0	0	-130.895	29.115	29.002	-138.28	41.215	147.424	-142.884	-82.636	44.921
785	7.85	-107.89	6.025	157.404	-131.77	-237.333	191.912	-131.493	-228.896	223.027	-46.816	-153.158	-8.669	-46.816	31.938	-8.669	0	0	0	-130.823	29.077	29.047	-138.219	41.145	147.472	-142.816	-82.679	44.935
786	7.86	-107.77	6.025	157.365	-131.617	-237.346	191.809	-131.357	-228.915	222.926	-46.816	-153.158	-8.669	-46.816	31.938	-8.669	0	0	0	-130.864	29.111	29.149	-138.276	41.145	147.576	-142.846	-82.65	45.005
787	7.87	-107.733	5.985	157.326	-131.571	-237.399	191.68	-131.328	-228.978	222.8	-46.816	-153.158	-8.669	-46.816	31.938	-8.669	0	0	0	-130.99	29.127	29.243	-138.419	41.124	147.673	-142.961	-82.641	45.062
788	7.88	-107.721	5.805	157.276	-131.589	-237.594	191.502	-131.367	-229.188	222.626	-46.816	-153.158	-8.669	-46.816	31.938	-8.669	0	0	0	-130.988	29.038	29.303	-138.441	40.997	147.736	-142.955	-82.735	45.085
789	7.89	-107.655	5.595	157.263	-131.553	-237.823	191.339	-131.355	-229.433	222.468	-46.816	-153.158	-8.669	-46.816	31.938	-8.669	0	0	0	-130.826	28.926	29.311	-138.299	40.844	147.747	-142.783	-82.854	45.054
790	7.9	-107.585	5.526	157.298	-131.47	-237.913	191.232	-131.296	-229.539	222.365	-46.816	-153.158	-8.669	-46.816	31.938	-8.669	0	0	0	-130.704	28.891	29.242	-138.178	40.764	147.682	-142.635	-82.898	44.943
791	7.91	-107.584	5.62	157.339	-131.422	-237.839	191.165	-131.269	-229.477	222.301	-46.816	-153.158	-8.669	-46.816	31.938	-8.669	0	0	0	-130.71	28.926	29.128	-138.167	40.755	147.573	-142.607	-82.872	44.792
792	7.92	-107.641	5.783	157.387	-131.425	-237.691	191.142	-131.289	-229.337	222.281	-46.816	-153.158	-8.669	-46.816	31.938	-8.669	0	0	0	-130.731	29.012	29.064	-138.177	40.812	147.513	-142.592	-82.793	44.705
